<?xml version="1.0" encoding="UTF-8" standalone="no"?>
<!-- Created with Inkscape (http://www.inkscape.org/) -->

<svg
   width="15"
   height="15"
   viewBox="0 0 3.9687499 3.96875"
   version="1.1"
   id="svg51667"
   xmlns="http://www.w3.org/2000/svg"
   xmlns:svg="http://www.w3.org/2000/svg">
  <defs
     id="defs51664" />
  <g
     id="layer1"
     transform="translate(-136.96514,-134.6216)">
    <path
       id="path39817-5"
       style="color:#000000;display:inline;fill:#969696;fill-rule:evenodd;stroke-width:0.646302;-inkscape-stroke:none"
       d="m 139.46051,135.01291 -0.28155,0.52503 c -0.0742,-0.0136 -0.15095,-0.0214 -0.22945,-0.0214 -0.72984,0 -1.32291,0.60392 -1.32291,1.34061 0,0.73669 0.59307,1.34195 1.32291,1.34195 0.72986,0 1.32292,-0.60526 1.32292,-1.34195 h -0.3941 c 0,0.52762 -0.41505,0.94785 -0.92882,0.94785 -0.51375,0 -0.92914,-0.42023 -0.92914,-0.94785 0,-0.5276 0.41539,-0.94785 0.92914,-0.94785 0.0101,0 0.0202,-9e-5 0.0304,3.5e-4 l -0.20606,0.38441 1.45183,-0.0478 c -0.25614,-0.41037 -0.51036,-0.8222 -0.76517,-1.23341 z" />
  </g>
</svg>
