<?xml version="1.0" encoding="UTF-8" standalone="no"?>
<!-- Created with Inkscape (http://www.inkscape.org/) -->

<svg
   width="15"
   height="15"
   viewBox="0 0 3.9687499 3.96875"
   version="1.1"
   id="svg51667"
   sodipodi:docname="icon-delete.svg"
   inkscape:version="1.1.2 (0a00cf5339, 2022-02-04)"
   xmlns:inkscape="http://www.inkscape.org/namespaces/inkscape"
   xmlns:sodipodi="http://sodipodi.sourceforge.net/DTD/sodipodi-0.dtd"
   xmlns="http://www.w3.org/2000/svg"
   xmlns:svg="http://www.w3.org/2000/svg">
  <sodipodi:namedview
     id="namedview876"
     pagecolor="#ffffff"
     bordercolor="#666666"
     borderopacity="1.0"
     inkscape:pageshadow="2"
     inkscape:pageopacity="0.0"
     inkscape:pagecheckerboard="0"
     showgrid="false"
     inkscape:zoom="26.666667"
     inkscape:cx="4.95"
     inkscape:cy="7.3875"
     inkscape:window-width="1920"
     inkscape:window-height="1008"
     inkscape:window-x="0"
     inkscape:window-y="0"
     inkscape:window-maximized="1"
     inkscape:current-layer="svg51667" />
  <defs
     id="defs51664" />
  <path
     style="fill:#ff7f2a;fill-opacity:1;stroke-width:0.00782836"
     d="M 0.96961883,3.2975587 C 0.94386833,3.2829367 0.71769973,3.0654637 0.68788253,3.026654 0.66576853,2.99787 0.66145853,2.985706 0.66145853,2.952075 c 0,-0.024073 0.00513,-0.047945 0.012788,-0.059539 0.00704,-0.010647 0.2122433,-0.2192548 0.45601417,-0.4635773 L 1.5734867,1.9847355 1.1261165,1.5365988 C 0.88006303,1.2901234 0.67485653,1.0807678 0.67010243,1.0713641 c -0.010895,-0.021555 -0.011159,-0.07313 -5.007e-4,-0.1011401 0.01078,-0.028358 0.2609065,-0.28074884 0.2935956,-0.29625827 0.029587,-0.0140365 0.071392,-0.0156327 0.10290457,-0.003933 0.012195,0.004525 0.2221301,0.20807277 0.4702173,0.45590647 L 1.9844971,1.5736634 2.4366555,1.122144 C 2.7470458,0.8121919 2.8957102,0.66894616 2.9108094,0.66527215 c 0.042943,-0.0104492 0.089483,8.4877e-4 0.1256861,0.0305084 0.041624,0.0341039 0.247844,0.25055715 0.2611068,0.27406625 0.011833,0.020982 0.012722,0.067449 0.00183,0.09658 -0.00454,0.012128 -0.2094708,0.2234613 -0.4559476,0.470173 l -0.447719,0.4481356 0.4477106,0.4481371 c 0.2464768,0.2467115 0.4514129,0.4580415 0.4559476,0.4701728 0.011537,0.030849 0.010253,0.072787 -0.00298,0.097726 -0.01343,0.025325 -0.2750446,0.2858074 -0.2994743,0.298185 -0.021587,0.010943 -0.065298,0.01114 -0.093953,4.205e-4 -0.01213,-0.00453 -0.223482,-0.2094225 -0.4702154,-0.45584 L 1.9846261,2.3959321 1.5363828,2.8434885 C 1.2898489,3.0896447 1.0782219,3.2947726 1.0661,3.2993286 c -0.029088,0.010926 -0.075604,0.010071 -0.096481,-0.00178 z"
     id="path11797" />
</svg>
