<?xml version="1.0" encoding="UTF-8" standalone="no"?>
<!-- Created with Inkscape (http://www.inkscape.org/) -->

<svg
   width="64"
   height="96"
   viewBox="0 0 16.933333 25.400001"
   version="1.1"
   id="svg331786"
   inkscape:version="1.1.2 (0a00cf5339, 2022-02-04)"
   sodipodi:docname="jack-red.svg"
   xmlns:inkscape="http://www.inkscape.org/namespaces/inkscape"
   xmlns:sodipodi="http://sodipodi.sourceforge.net/DTD/sodipodi-0.dtd"
   xmlns="http://www.w3.org/2000/svg"
   xmlns:svg="http://www.w3.org/2000/svg">
  <sodipodi:namedview
     id="namedview331788"
     pagecolor="#ffffff"
     bordercolor="#666666"
     borderopacity="1.0"
     inkscape:pageshadow="2"
     inkscape:pageopacity="0.0"
     inkscape:pagecheckerboard="0"
     inkscape:document-units="mm"
     showgrid="false"
     units="px"
     inkscape:zoom="4.192802"
     inkscape:cx="9.1824037"
     inkscape:cy="54.140406"
     inkscape:window-width="1920"
     inkscape:window-height="1008"
     inkscape:window-x="0"
     inkscape:window-y="0"
     inkscape:window-maximized="1"
     inkscape:current-layer="layer1" />
  <defs
     id="defs331783" />
  <g
     inkscape:label="Layer 1"
     inkscape:groupmode="layer"
     id="layer1">
    <rect
       style="display:inline;fill:#ffffff;fill-opacity:1;fill-rule:evenodd;stroke:#000000;stroke-width:0.263689;stroke-miterlimit:4;stroke-dasharray:none;stroke-opacity:0"
       id="rect330148"
       width="16.931847"
       height="25.399088"
       x="-0.00014078931"
       y="0.0010609675"
       ry="2.1031959"
       rx="2.0836322"
       inkscape:label="card-body"
       transform="matrix(1,-7.1451118e-5,6.9616232e-5,1,0,0)" />
    <g
       id="g331305"
       transform="translate(-757.1395,-763.32567)"
       style="fill:#e11d48;fill-opacity:1">
      <g
         id="g331277"
         transform="matrix(0.6882056,0,0,0.6882056,197.99754,232.08334)"
         style="fill:#e11d48;fill-opacity:1">
        <path
           id="path331253"
           style="color:#000000;display:inline;fill:#e11d48;fill-opacity:1;stroke-width:3.77953;stroke-linecap:round;stroke-linejoin:round;-inkscape-stroke:none"
           d="m 3122.7773,2944.1504 -1.6933,2.8281 -1.002,-0.2676 c -0.7724,-0.2071 -1.4922,-0.255 -2.1484,-0.061 -0.6561,0.195 -1.175,0.589 -1.6758,1.0488 a 0.9499994,0.9499994 0 0 0 -0.059,1.3438 0.9499994,0.9499994 0 0 0 1.3418,0.059 c 0.409,-0.3753 0.6829,-0.5531 0.9317,-0.627 0.2486,-0.074 0.5468,-0.086 1.1132,0.066 l 0.4864,0.1309 -6.9746,11.6504 a 1.050105,1.050105 0 0 0 0.4726,1.498 l 4.5098,2.0313 a 1.05,1.05 0 0 0 1.3887,-0.5254 1.05,1.05 0 0 0 -0.5235,-1.3867 l -3.4336,-1.543 5.3965,-9.0274 a 2.2906118,2.2906118 0 0 0 2.248,1.8555 2.2906118,2.2906118 0 0 0 2.2911,-2.2891 2.2906118,2.2906118 0 0 0 -0.1719,-0.871 l 4.5859,1.2304 a 0.9499994,0.9499994 0 0 0 1.168,-0.6719 0.9499994,0.9499994 0 0 0 -0.6719,-1.1601 l -7.1621,-1.918 1.4004,-2.3437 z m 12.2364,7.0664 -3.4453,7.7402 c -0.4216,0.9467 -0.7617,1.8651 -1.0176,2.7559 h -0.051 l -6.4961,15.1992 h 2.9805 l 3.416,-8.2617 c 0.1379,0.4556 0.3063,0.9 0.5098,1.334 1.4613,3.1171 4.4204,5.5176 8.4668,7.7734 l 1.2695,-2.2734 c -3.8237,-2.1318 -6.2837,-4.267 -7.3809,-6.6074 -1.0972,-2.3404 -1.0217,-5.0447 0.6797,-8.8653 l 3.332,-7.4883 z m 4.4218,2.5527 -2.7148,6.125 c -1.0424,2.3506 -1.5146,4.6556 -0.709,6.836 0.8056,2.1803 2.7499,3.9709 5.8828,5.6621 l 1.2325,-2.2813 c -2.8477,-1.5373 -4.1815,-2.9617 -4.6719,-4.289 -0.4905,-1.3274 -0.2665,-2.823 0.6426,-4.8731 l 2.5996,-5.873 z m -21.3105,11.0625 a 1.0000006,1.0000006 0 0 0 -1.0039,0.9981 1.0000006,1.0000006 0 0 0 1.0039,1.0039 h 8.0391 a 1.0000006,1.0000006 0 0 0 0.9961,-1.0039 1.0000006,1.0000006 0 0 0 -0.9961,-0.9981 z m 0.6504,2.6133 a 1.0000006,1.0000006 0 0 0 -1.0039,0.9981 1.0000006,1.0000006 0 0 0 1.0039,1.0039 h 5.1582 a 1.0000006,1.0000006 0 0 0 0.998,-1.0039 1.0000006,1.0000006 0 0 0 -0.998,-0.9981 z m -1.7793,3.1699 -3.082,6.295 h 2.8457 l 3.0039,-6.295 z m 4.9824,0 -3.084,6.295 h 2.8457 l 3.0059,-6.295 z"
           transform="scale(0.26458333)" />
        <g
           id="g331275"
           transform="translate(-0.03874319,6.4660009e-4)"
           style="display:inline;fill:#e11d48;fill-opacity:1">
          <rect
             style="font-variation-settings:normal;display:inline;fill:#e11d48;fill-opacity:1;stroke:#ce2929;stroke-width:4.49192;stroke-linecap:round;stroke-linejoin:round;stroke-miterlimit:4;stroke-dasharray:none;stroke-dashoffset:0;stroke-opacity:0.00460875;paint-order:markers fill stroke;stop-color:#000000"
             id="rect331255"
             width="0.55733651"
             height="6.9695773"
             x="260.4451"
             y="-1111.389"
             transform="rotate(120)" />
          <g
             id="g331273"
             transform="rotate(30,814.89377,840.7814)"
             style="display:inline;fill:#e11d48;fill-opacity:1">
            <rect
               style="font-variation-settings:normal;fill:#e11d48;fill-opacity:1;stroke:#ce2929;stroke-width:4.55038;stroke-linecap:round;stroke-linejoin:round;stroke-miterlimit:4;stroke-dasharray:none;stroke-dashoffset:0;stroke-opacity:0.00460875;paint-order:markers fill stroke;stop-color:#000000"
               id="rect331257"
               width="0.57193834"
               height="6.9695773"
               x="779.47803"
               y="-800.22546"
               transform="rotate(90)" />
            <g
               id="g331271"
               style="fill:#e11d48;fill-opacity:1">
              <circle
                 style="font-variation-settings:normal;opacity:1;fill:#e11d48;fill-opacity:1;stroke:#000000;stroke-width:0;stroke-linecap:round;stroke-linejoin:round;stroke-miterlimit:4;stroke-dasharray:none;stroke-dashoffset:0;stroke-opacity:0.00745927;paint-order:markers fill stroke;stop-color:#000000;stop-opacity:1"
                 id="circle331259"
                 cx="793.25586"
                 cy="779.47797"
                 r="0.57866544" />
              <circle
                 style="font-variation-settings:normal;opacity:1;fill:#e11d48;fill-opacity:1;stroke:#000000;stroke-width:0;stroke-linecap:round;stroke-linejoin:round;stroke-miterlimit:4;stroke-dasharray:none;stroke-dashoffset:0;stroke-opacity:0.00745927;paint-order:markers fill stroke;stop-color:#000000;stop-opacity:1"
                 id="circle331261"
                 cx="800.21436"
                 cy="779.47797"
                 r="0.57866544" />
              <circle
                 style="font-variation-settings:normal;opacity:1;fill:#e11d48;fill-opacity:1;stroke:#000000;stroke-width:0;stroke-linecap:round;stroke-linejoin:round;stroke-miterlimit:4;stroke-dasharray:none;stroke-dashoffset:0;stroke-opacity:0.00745927;paint-order:markers fill stroke;stop-color:#000000;stop-opacity:1"
                 id="circle331263"
                 cx="794.64758"
                 cy="779.47797"
                 r="0.57866544" />
              <circle
                 style="font-variation-settings:normal;opacity:1;fill:#e11d48;fill-opacity:1;stroke:#000000;stroke-width:0;stroke-linecap:round;stroke-linejoin:round;stroke-miterlimit:4;stroke-dasharray:none;stroke-dashoffset:0;stroke-opacity:0.00745927;paint-order:markers fill stroke;stop-color:#000000;stop-opacity:1"
                 id="circle331265"
                 cx="796.03925"
                 cy="779.47797"
                 r="0.57866544" />
              <circle
                 style="font-variation-settings:normal;opacity:1;fill:#e11d48;fill-opacity:1;stroke:#000000;stroke-width:0;stroke-linecap:round;stroke-linejoin:round;stroke-miterlimit:4;stroke-dasharray:none;stroke-dashoffset:0;stroke-opacity:0.00745927;paint-order:markers fill stroke;stop-color:#000000;stop-opacity:1"
                 id="circle331267"
                 cx="797.43091"
                 cy="779.47797"
                 r="0.57866544" />
              <circle
                 style="font-variation-settings:normal;opacity:1;fill:#e11d48;fill-opacity:1;stroke:#000000;stroke-width:0;stroke-linecap:round;stroke-linejoin:round;stroke-miterlimit:4;stroke-dasharray:none;stroke-dashoffset:0;stroke-opacity:0.00745927;paint-order:markers fill stroke;stop-color:#000000;stop-opacity:1"
                 id="circle331269"
                 cx="798.82263"
                 cy="779.47797"
                 r="0.57866544" />
            </g>
          </g>
        </g>
      </g>
      <g
         id="g331303"
         transform="matrix(-0.6882056,0,0,-0.6882056,1333.2148,1319.968)"
         style="fill:#e11d48;fill-opacity:1">
        <path
           id="path331279"
           style="color:#000000;display:inline;fill:#e11d48;fill-opacity:1;stroke-width:3.77953;stroke-linecap:round;stroke-linejoin:round;-inkscape-stroke:none"
           d="m 3122.7773,2944.1504 -1.6933,2.8281 -1.002,-0.2676 c -0.7724,-0.2071 -1.4922,-0.255 -2.1484,-0.061 -0.6561,0.195 -1.175,0.589 -1.6758,1.0488 a 0.9499994,0.9499994 0 0 0 -0.059,1.3438 0.9499994,0.9499994 0 0 0 1.3418,0.059 c 0.409,-0.3753 0.6829,-0.5531 0.9317,-0.627 0.2486,-0.074 0.5468,-0.086 1.1132,0.066 l 0.4864,0.1309 -6.9746,11.6504 a 1.050105,1.050105 0 0 0 0.4726,1.498 l 4.5098,2.0313 a 1.05,1.05 0 0 0 1.3887,-0.5254 1.05,1.05 0 0 0 -0.5235,-1.3867 l -3.4336,-1.543 5.3965,-9.0274 a 2.2906118,2.2906118 0 0 0 2.248,1.8555 2.2906118,2.2906118 0 0 0 2.2911,-2.2891 2.2906118,2.2906118 0 0 0 -0.1719,-0.871 l 4.5859,1.2304 a 0.9499994,0.9499994 0 0 0 1.168,-0.6719 0.9499994,0.9499994 0 0 0 -0.6719,-1.1601 l -7.1621,-1.918 1.4004,-2.3437 z m 12.2364,7.0664 -3.4453,7.7402 c -0.4216,0.9467 -0.7617,1.8651 -1.0176,2.7559 h -0.051 l -6.4961,15.1992 h 2.9805 l 3.416,-8.2617 c 0.1379,0.4556 0.3063,0.9 0.5098,1.334 1.4613,3.1171 4.4204,5.5176 8.4668,7.7734 l 1.2695,-2.2734 c -3.8237,-2.1318 -6.2837,-4.267 -7.3809,-6.6074 -1.0972,-2.3404 -1.0217,-5.0447 0.6797,-8.8653 l 3.332,-7.4883 z m 4.4218,2.5527 -2.7148,6.125 c -1.0424,2.3506 -1.5146,4.6556 -0.709,6.836 0.8056,2.1803 2.7499,3.9709 5.8828,5.6621 l 1.2325,-2.2813 c -2.8477,-1.5373 -4.1815,-2.9617 -4.6719,-4.289 -0.4905,-1.3274 -0.2665,-2.823 0.6426,-4.8731 l 2.5996,-5.873 z m -21.3105,11.0625 a 1.0000006,1.0000006 0 0 0 -1.0039,0.9981 1.0000006,1.0000006 0 0 0 1.0039,1.0039 h 8.0391 a 1.0000006,1.0000006 0 0 0 0.9961,-1.0039 1.0000006,1.0000006 0 0 0 -0.9961,-0.9981 z m 0.6504,2.6133 a 1.0000006,1.0000006 0 0 0 -1.0039,0.9981 1.0000006,1.0000006 0 0 0 1.0039,1.0039 h 5.1582 a 1.0000006,1.0000006 0 0 0 0.998,-1.0039 1.0000006,1.0000006 0 0 0 -0.998,-0.9981 z m -1.7793,3.1699 -3.082,6.295 h 2.8457 l 3.0039,-6.295 z m 4.9824,0 -3.084,6.295 h 2.8457 l 3.0059,-6.295 z"
           transform="scale(0.26458333)" />
        <g
           id="g331301"
           transform="translate(-0.03874319,6.4660009e-4)"
           style="display:inline;fill:#e11d48;fill-opacity:1">
          <rect
             style="font-variation-settings:normal;display:inline;fill:#e11d48;fill-opacity:1;stroke:#ce2929;stroke-width:4.49192;stroke-linecap:round;stroke-linejoin:round;stroke-miterlimit:4;stroke-dasharray:none;stroke-dashoffset:0;stroke-opacity:0.00460875;paint-order:markers fill stroke;stop-color:#000000"
             id="rect331281"
             width="0.55733651"
             height="6.9695773"
             x="260.4451"
             y="-1111.389"
             transform="rotate(120)" />
          <g
             id="g331299"
             transform="rotate(30,814.89377,840.7814)"
             style="display:inline;fill:#e11d48;fill-opacity:1">
            <rect
               style="font-variation-settings:normal;fill:#e11d48;fill-opacity:1;stroke:#ce2929;stroke-width:4.55038;stroke-linecap:round;stroke-linejoin:round;stroke-miterlimit:4;stroke-dasharray:none;stroke-dashoffset:0;stroke-opacity:0.00460875;paint-order:markers fill stroke;stop-color:#000000"
               id="rect331283"
               width="0.57193834"
               height="6.9695773"
               x="779.47803"
               y="-800.22546"
               transform="rotate(90)" />
            <g
               id="g331297"
               style="fill:#e11d48;fill-opacity:1">
              <circle
                 style="font-variation-settings:normal;opacity:1;fill:#e11d48;fill-opacity:1;stroke:#000000;stroke-width:0;stroke-linecap:round;stroke-linejoin:round;stroke-miterlimit:4;stroke-dasharray:none;stroke-dashoffset:0;stroke-opacity:0.00745927;paint-order:markers fill stroke;stop-color:#000000;stop-opacity:1"
                 id="circle331285"
                 cx="793.25586"
                 cy="779.47797"
                 r="0.57866544" />
              <circle
                 style="font-variation-settings:normal;opacity:1;fill:#e11d48;fill-opacity:1;stroke:#000000;stroke-width:0;stroke-linecap:round;stroke-linejoin:round;stroke-miterlimit:4;stroke-dasharray:none;stroke-dashoffset:0;stroke-opacity:0.00745927;paint-order:markers fill stroke;stop-color:#000000;stop-opacity:1"
                 id="circle331287"
                 cx="800.21436"
                 cy="779.47797"
                 r="0.57866544" />
              <circle
                 style="font-variation-settings:normal;opacity:1;fill:#e11d48;fill-opacity:1;stroke:#000000;stroke-width:0;stroke-linecap:round;stroke-linejoin:round;stroke-miterlimit:4;stroke-dasharray:none;stroke-dashoffset:0;stroke-opacity:0.00745927;paint-order:markers fill stroke;stop-color:#000000;stop-opacity:1"
                 id="circle331289"
                 cx="794.64758"
                 cy="779.47797"
                 r="0.57866544" />
              <circle
                 style="font-variation-settings:normal;opacity:1;fill:#e11d48;fill-opacity:1;stroke:#000000;stroke-width:0;stroke-linecap:round;stroke-linejoin:round;stroke-miterlimit:4;stroke-dasharray:none;stroke-dashoffset:0;stroke-opacity:0.00745927;paint-order:markers fill stroke;stop-color:#000000;stop-opacity:1"
                 id="circle331291"
                 cx="796.03925"
                 cy="779.47797"
                 r="0.57866544" />
              <circle
                 style="font-variation-settings:normal;opacity:1;fill:#e11d48;fill-opacity:1;stroke:#000000;stroke-width:0;stroke-linecap:round;stroke-linejoin:round;stroke-miterlimit:4;stroke-dasharray:none;stroke-dashoffset:0;stroke-opacity:0.00745927;paint-order:markers fill stroke;stop-color:#000000;stop-opacity:1"
                 id="circle331293"
                 cx="797.43091"
                 cy="779.47797"
                 r="0.57866544" />
              <circle
                 style="font-variation-settings:normal;opacity:1;fill:#e11d48;fill-opacity:1;stroke:#000000;stroke-width:0;stroke-linecap:round;stroke-linejoin:round;stroke-miterlimit:4;stroke-dasharray:none;stroke-dashoffset:0;stroke-opacity:0.00745927;paint-order:markers fill stroke;stop-color:#000000;stop-opacity:1"
                 id="circle331295"
                 cx="798.82263"
                 cy="779.47797"
                 r="0.57866544" />
            </g>
          </g>
        </g>
      </g>
    </g>
  </g>
</svg>
