<?xml version="1.0" encoding="UTF-8" standalone="no"?>
<!-- Created with Inkscape (http://www.inkscape.org/) -->

<svg
   width="64"
   height="96"
   viewBox="0 0 16.933333 25.400001"
   version="1.1"
   id="svg331786"
   inkscape:version="1.1.2 (0a00cf5339, 2022-02-04)"
   sodipodi:docname="king-black.svg"
   xmlns:inkscape="http://www.inkscape.org/namespaces/inkscape"
   xmlns:sodipodi="http://sodipodi.sourceforge.net/DTD/sodipodi-0.dtd"
   xmlns="http://www.w3.org/2000/svg"
   xmlns:svg="http://www.w3.org/2000/svg">
  <sodipodi:namedview
     id="namedview331788"
     pagecolor="#ffffff"
     bordercolor="#666666"
     borderopacity="1.0"
     inkscape:pageshadow="2"
     inkscape:pageopacity="0.0"
     inkscape:pagecheckerboard="0"
     inkscape:document-units="mm"
     showgrid="false"
     units="px"
     inkscape:zoom="4.192802"
     inkscape:cx="9.1824037"
     inkscape:cy="54.140406"
     inkscape:window-width="1920"
     inkscape:window-height="1008"
     inkscape:window-x="0"
     inkscape:window-y="0"
     inkscape:window-maximized="1"
     inkscape:current-layer="layer1" />
  <defs
     id="defs331783" />
  <g
     inkscape:label="Layer 1"
     inkscape:groupmode="layer"
     id="layer1">
    <rect
       style="display:inline;fill:#ffffff;fill-opacity:1;fill-rule:evenodd;stroke:#000000;stroke-width:0.263689;stroke-miterlimit:4;stroke-dasharray:none;stroke-opacity:0"
       id="rect330148"
       width="16.931847"
       height="25.399088"
       x="-0.00014078931"
       y="0.0010609675"
       ry="2.1031959"
       rx="2.0836322"
       inkscape:label="card-body"
       transform="matrix(1,-7.1451118e-5,6.9616232e-5,1,0,0)" />
    <g
       id="g330188"
       transform="translate(-734.05155,-763.0172)"
       style="fill:#525252;fill-opacity:1">
      <g
         id="g330176"
         transform="matrix(0.66609154,0.08037904,-0.08037904,0.66609154,280.88234,187.21294)"
         style="fill:#525252;fill-opacity:1">
        <path
           id="path330168"
           style="color:#000000;fill:#525252;fill-opacity:1;stroke-width:3.77953;stroke-linecap:round;stroke-linejoin:round;-inkscape-stroke:none"
           d="m 2982.9043,2931.8301 -2.1133,3.5332 h -1.1582 c -0.7996,0 -1.5045,0.1516 -2.0879,0.5097 -0.5833,0.3583 -0.979,0.8658 -1.3437,1.4395 -0.2845,0.4421 -0.1559,1.0313 0.2871,1.3145 0.4442,0.283 1.0338,0.1507 1.3144,-0.295 0.2979,-0.4685 0.5171,-0.706 0.7383,-0.8418 0.2211,-0.1357 0.5054,-0.2207 1.0918,-0.2207 h 0.02 l -6.4199,10.7325 c -0.3232,0.5401 -0.102,1.2412 0.4727,1.498 l 1.916,0.8633 c -0.7081,0.6696 -0.9589,1.6157 -0.9453,2.5117 0.026,1.6958 2.5168,3.2815 6.5781,3.2815 3.2245,0 5.1447,-1.2923 6.179,-2.47 1.389,-1.5816 1.5964,-3.7565 0.6257,-5.3309 -0.8077,-1.31 -1.9083,-1.7414 -2.9573,-1.6998 -0.9418,0.037 -2.3345,0.8962 -2.6419,1.4358 -0.2322,0.4077 -0.1643,0.7284 0.1364,0.9097 0.2422,0.146 0.6351,0.068 1.0312,-0.1862 0.7006,-0.4503 1.2407,-0.5365 1.6738,-0.4297 0.5108,0.1258 0.8603,0.4204 0.9375,1.2597 0.1058,1.1505 -1.2543,1.7979 -2.5352,1.5762 -1.3624,-0.2357 -3.1488,-1.2148 -4.625,-1.5977 h -0.01 l -3.4317,-1.5429 5.9492,-9.9512 c 0.1629,1.127 1.1289,1.9632 2.2676,1.9629 1.2646,2e-4 2.2902,-1.0245 2.291,-2.2891 0,-0.1782 -0.021,-0.3559 -0.062,-0.5293 h 3.7969 v 13.0215 c -1e-4,0.4251 0.022,0.9084 0.074,1.4375 v 14.6836 c 0,2.7249 -1.1919,7.3641 -5.3437,10.6016 l 1.6015,2.0508 c 4.8977,-3.8191 6.3477,-9.1876 6.3477,-12.6524 v -7.289 c 1.4514,2.2385 3.6516,4.4727 6.9551,6.3144 l 1.2617,-2.2734 c -6.3011,-3.513 -7.8816,-8.3141 -8.2168,-11.3946 v -0.1953 h -0.018 c -0.045,-0.4763 -0.062,-0.9086 -0.062,-1.2832 v -12.9375 l -3.4433,-1.9883 h -5.7989 l 1.4883,-2.4882 z m 11.9316,6.8887 0.1368,10.7382 c 0.075,5.8546 3.5999,9.2647 7.1386,11.4942 l 1.3887,-2.2012 c -3.2384,-2.0403 -5.8652,-4.4497 -5.9277,-9.3223 l -0.1192,-9.1972 z m 5.002,2.8867 0.1543,3.9902 c 0.1081,2.7775 0.2,4.7841 0.8789,6.5762 0.6788,1.792 1.9912,3.1876 4.0527,4.4883 l 1.3887,-2.1993 c -1.8043,-1.1383 -2.5415,-1.985 -3.0059,-3.2109 -0.4643,-1.2259 -0.6076,-3.0062 -0.7148,-5.7578 l -0.092,-2.3496 z m -19.8203,16.2578 v 4.7324 c 0,1.4634 -0.146,2.8097 -0.4434,3.8242 -0.2974,1.0145 -0.7306,1.6412 -1.1523,1.9121 l 1.4043,2.1856 c 1.1728,-0.7535 1.8429,-1.9989 2.2441,-3.3672 0.4012,-1.3683 0.5527,-2.9233 0.5527,-4.5547 v -4.7324 z m 4.998,0.023 v 8.2676 c 0,2.5688 -1.7284,5.3581 -3.4121,6.5098 l 1.4707,2.1484 c 2.5075,-1.7152 4.5391,-5.0373 4.5391,-8.6582 v -8.2676 z"
           transform="scale(0.26458333)"
           sodipodi:nodetypes="ccsscscssccccsssssssssssscccssccccsccsccccccsccccccscccccccsccsscccssccsscccsccscc" />
        <g
           id="g330174"
           transform="translate(-11.376363,3.5869062)"
           style="display:inline;fill:#525252;fill-opacity:1">
          <rect
             style="font-variation-settings:normal;fill:#525252;fill-opacity:1;stroke:#ce2929;stroke-width:4.55038;stroke-linecap:round;stroke-linejoin:round;stroke-miterlimit:4;stroke-dasharray:none;stroke-dashoffset:0;stroke-opacity:0.00460875;paint-order:markers fill stroke;stop-color:#000000"
             id="rect330170"
             width="0.57193834"
             height="6.9695773"
             x="267.39539"
             y="-1085.9271"
             transform="rotate(120)" />
          <path
             style="color:#000000;fill:#525252;fill-opacity:1;-inkscape-stroke:none"
             d="m 806.00968,768.83225 -2.7273,1.67694 -2.18856,-2.22883 -0.1164,0.5688 c 0,0 -0.13183,0.64707 -0.26842,1.30868 -0.0683,0.33081 -0.13863,0.66481 -0.19284,0.92385 -0.0271,0.12952 -0.0492,0.24094 -0.0666,0.32239 -0.0175,0.0815 -0.0346,0.1513 -0.0299,0.13382 l 0.59499,0.16084 c 0.0129,-0.0477 0.0193,-0.0825 0.0371,-0.16578 0.0178,-0.0833 0.0413,-0.19576 0.0686,-0.32578 0.0544,-0.26008 0.12545,-0.59444 0.19381,-0.92553 0.0775,-0.37533 0.10157,-0.4911 0.15301,-0.7416 l 1.75399,1.78622 2.00149,-1.13073 0.0215,2.2987 2.42391,0.62589 c -0.19122,0.1698 -0.27944,0.24854 -0.56574,0.50332 -0.25255,0.22474 -0.50661,0.45343 -0.70462,0.63061 -0.099,0.0886 -0.18475,0.16519 -0.24786,0.22226 -0.0632,0.057 -0.0901,0.0799 -0.12504,0.11498 l 0.43678,0.43486 c -0.0131,0.0127 0.0391,-0.037 0.10094,-0.0928 0.0618,-0.0559 0.14726,-0.13066 0.24589,-0.21888 0.19725,-0.17646 0.45132,-0.40437 0.70366,-0.62892 0.50467,-0.44911 0.99914,-0.88681 0.99914,-0.88681 l 0.4327,-0.38618 -3.02281,-0.77996 z"
             id="path330172"
             sodipodi:nodetypes="ccccsssccssscccccsssccssscccc" />
        </g>
      </g>
      <g
         id="g330186"
         transform="matrix(-0.667341,-0.06924395,0.06924395,-0.667341,1213.7959,1356.3923)"
         style="fill:#525252;fill-opacity:1">
        <path
           id="path330178"
           style="color:#000000;fill:#525252;fill-opacity:1;stroke-width:3.77953;stroke-linecap:round;stroke-linejoin:round;-inkscape-stroke:none"
           d="m 2982.9043,2931.8301 -2.1133,3.5332 h -1.1582 c -0.7996,0 -1.5045,0.1516 -2.0879,0.5097 -0.5833,0.3583 -0.979,0.8658 -1.3437,1.4395 -0.2845,0.4421 -0.1559,1.0313 0.2871,1.3145 0.4442,0.283 1.0338,0.1507 1.3144,-0.295 0.2979,-0.4685 0.5171,-0.706 0.7383,-0.8418 0.2211,-0.1357 0.5054,-0.2207 1.0918,-0.2207 h 0.02 l -6.4199,10.7325 c -0.3232,0.5401 -0.102,1.2412 0.4727,1.498 l 1.916,0.8633 c -0.7081,0.6696 -0.9589,1.6157 -0.9453,2.5117 0.026,1.6958 2.5168,3.2815 6.5781,3.2815 3.2245,0 5.1447,-1.2923 6.179,-2.47 1.389,-1.5816 1.5964,-3.7565 0.6257,-5.3309 -0.8077,-1.31 -1.9083,-1.7414 -2.9573,-1.6998 -0.9418,0.037 -2.3345,0.8962 -2.6419,1.4358 -0.2322,0.4077 -0.1643,0.7284 0.1364,0.9097 0.2422,0.146 0.6351,0.068 1.0312,-0.1862 0.7006,-0.4503 1.2407,-0.5365 1.6738,-0.4297 0.5108,0.1258 0.8603,0.4204 0.9375,1.2597 0.1058,1.1505 -1.2543,1.7979 -2.5352,1.5762 -1.3624,-0.2357 -3.1488,-1.2148 -4.625,-1.5977 h -0.01 l -3.4317,-1.5429 5.9492,-9.9512 c 0.1629,1.127 1.1289,1.9632 2.2676,1.9629 1.2646,2e-4 2.2902,-1.0245 2.291,-2.2891 0,-0.1782 -0.021,-0.3559 -0.062,-0.5293 h 3.7969 v 13.0215 c -1e-4,0.4251 0.022,0.9084 0.074,1.4375 v 14.6836 c 0,2.7249 -1.1919,7.3641 -5.3437,10.6016 l 1.6015,2.0508 c 4.8977,-3.8191 6.3477,-9.1876 6.3477,-12.6524 v -7.289 c 1.4514,2.2385 3.6516,4.4727 6.9551,6.3144 l 1.2617,-2.2734 c -6.3011,-3.513 -7.8816,-8.3141 -8.2168,-11.3946 v -0.1953 h -0.018 c -0.045,-0.4763 -0.062,-0.9086 -0.062,-1.2832 v -12.9375 l -3.4433,-1.9883 h -5.7989 l 1.4883,-2.4882 z m 11.9316,6.8887 0.1368,10.7382 c 0.075,5.8546 3.5999,9.2647 7.1386,11.4942 l 1.3887,-2.2012 c -3.2384,-2.0403 -5.8652,-4.4497 -5.9277,-9.3223 l -0.1192,-9.1972 z m 5.002,2.8867 0.1543,3.9902 c 0.1081,2.7775 0.2,4.7841 0.8789,6.5762 0.6788,1.792 1.9912,3.1876 4.0527,4.4883 l 1.3887,-2.1993 c -1.8043,-1.1383 -2.5415,-1.985 -3.0059,-3.2109 -0.4643,-1.2259 -0.6076,-3.0062 -0.7148,-5.7578 l -0.092,-2.3496 z m -19.8203,16.2578 v 4.7324 c 0,1.4634 -0.146,2.8097 -0.4434,3.8242 -0.2974,1.0145 -0.7306,1.6412 -1.1523,1.9121 l 1.4043,2.1856 c 1.1728,-0.7535 1.8429,-1.9989 2.2441,-3.3672 0.4012,-1.3683 0.5527,-2.9233 0.5527,-4.5547 v -4.7324 z m 4.998,0.023 v 8.2676 c 0,2.5688 -1.7284,5.3581 -3.4121,6.5098 l 1.4707,2.1484 c 2.5075,-1.7152 4.5391,-5.0373 4.5391,-8.6582 v -8.2676 z"
           transform="scale(0.26458333)"
           sodipodi:nodetypes="ccsscscssccccsssssssssssscccssccccsccsccccccsccccccscccccccsccsscccssccsscccsccscc" />
        <g
           id="g330184"
           transform="translate(-11.376363,3.5869062)"
           style="display:inline;fill:#525252;fill-opacity:1">
          <rect
             style="font-variation-settings:normal;fill:#525252;fill-opacity:1;stroke:#ce2929;stroke-width:4.55038;stroke-linecap:round;stroke-linejoin:round;stroke-miterlimit:4;stroke-dasharray:none;stroke-dashoffset:0;stroke-opacity:0.00460875;paint-order:markers fill stroke;stop-color:#000000"
             id="rect330180"
             width="0.57193834"
             height="6.9695773"
             x="267.39539"
             y="-1085.9271"
             transform="rotate(120)" />
          <path
             style="color:#000000;fill:#525252;fill-opacity:1;-inkscape-stroke:none"
             d="m 806.00968,768.83225 -2.7273,1.67694 -2.18856,-2.22883 -0.1164,0.5688 c 0,0 -0.13183,0.64707 -0.26842,1.30868 -0.0683,0.33081 -0.13863,0.66481 -0.19284,0.92385 -0.0271,0.12952 -0.0492,0.24094 -0.0666,0.32239 -0.0175,0.0815 -0.0346,0.1513 -0.0299,0.13382 l 0.59499,0.16084 c 0.0129,-0.0477 0.0193,-0.0825 0.0371,-0.16578 0.0178,-0.0833 0.0413,-0.19576 0.0686,-0.32578 0.0544,-0.26008 0.12545,-0.59444 0.19381,-0.92553 0.0775,-0.37533 0.10157,-0.4911 0.15301,-0.7416 l 1.75399,1.78622 2.00149,-1.13073 0.0215,2.2987 2.42391,0.62589 c -0.19122,0.1698 -0.27944,0.24854 -0.56574,0.50332 -0.25255,0.22474 -0.50661,0.45343 -0.70462,0.63061 -0.099,0.0886 -0.18475,0.16519 -0.24786,0.22226 -0.0632,0.057 -0.0901,0.0799 -0.12504,0.11498 l 0.43678,0.43486 c -0.0131,0.0127 0.0391,-0.037 0.10094,-0.0928 0.0618,-0.0559 0.14726,-0.13066 0.24589,-0.21888 0.19725,-0.17646 0.45132,-0.40437 0.70366,-0.62892 0.50467,-0.44911 0.99914,-0.88681 0.99914,-0.88681 l 0.4327,-0.38618 -3.02281,-0.77996 z"
             id="path330182"
             sodipodi:nodetypes="ccccsssccssscccccsssccssscccc" />
        </g>
      </g>
    </g>
  </g>
</svg>
