<?xml version="1.0" encoding="UTF-8" standalone="no"?>
<!-- Created with Inkscape (http://www.inkscape.org/) -->

<svg
   width="64"
   height="96"
   viewBox="0 0 16.933333 25.400001"
   version="1.1"
   id="svg331786"
   inkscape:version="1.1.2 (0a00cf5339, 2022-02-04)"
   sodipodi:docname="queen-red.svg"
   xmlns:inkscape="http://www.inkscape.org/namespaces/inkscape"
   xmlns:sodipodi="http://sodipodi.sourceforge.net/DTD/sodipodi-0.dtd"
   xmlns="http://www.w3.org/2000/svg"
   xmlns:svg="http://www.w3.org/2000/svg">
  <sodipodi:namedview
     id="namedview331788"
     pagecolor="#ffffff"
     bordercolor="#666666"
     borderopacity="1.0"
     inkscape:pageshadow="2"
     inkscape:pageopacity="0.0"
     inkscape:pagecheckerboard="0"
     inkscape:document-units="mm"
     showgrid="false"
     units="px"
     inkscape:zoom="4.192802"
     inkscape:cx="9.1824037"
     inkscape:cy="54.140406"
     inkscape:window-width="1920"
     inkscape:window-height="1008"
     inkscape:window-x="0"
     inkscape:window-y="0"
     inkscape:window-maximized="1"
     inkscape:current-layer="layer1" />
  <defs
     id="defs331783" />
  <g
     inkscape:label="Layer 1"
     inkscape:groupmode="layer"
     id="layer1">
    <rect
       style="display:inline;fill:#ffffff;fill-opacity:1;fill-rule:evenodd;stroke:#000000;stroke-width:0.263689;stroke-miterlimit:4;stroke-dasharray:none;stroke-opacity:0"
       id="rect330148"
       width="16.931847"
       height="25.399088"
       x="-0.00014078931"
       y="0.0010609675"
       ry="2.1031959"
       rx="2.0836322"
       inkscape:label="card-body"
       transform="matrix(1,-7.1451118e-5,6.9616232e-5,1,0,0)" />
    <g
       id="g331327"
       transform="translate(-801.09981,-762.74416)"
       style="fill:#e11d48;fill-opacity:1">
      <g
         id="g331315"
         transform="matrix(0.66010949,0.07260239,-0.07260239,0.66010949,292.80136,190.59723)"
         style="fill:#e11d48;fill-opacity:1">
        <path
           id="path331307"
           style="fill:#e11d48;fill-opacity:1;stroke:#000000;stroke-width:0.999999;stroke-linecap:butt;stroke-linejoin:miter;stroke-miterlimit:4;stroke-dasharray:none;stroke-opacity:0"
           d="m 3286.3809,2943.1152 c -0.9681,2.0635 -1.195,3.9477 -0.7676,5.5293 0.1589,0.5883 0.4112,1.1234 0.7363,1.5957 -0.9542,3.3536 -3.6603,7.6728 -6,9.8536 a 1.050105,1.050105 0 0 0 0.125,1.6386 l 3.4629,2.3242 a 1.05,1.05 0 0 0 1.4531,-0.2871 1.05,1.05 0 0 0 -0.2871,-1.455 l -2.6582,-1.7852 c 2.2121,-2.3539 4.4681,-5.5613 5.6113,-8.7246 0.1466,0.083 0.2957,0.1604 0.4493,0.2285 1.5686,0.6953 3.426,0.4795 5.0507,-0.4805 0.033,0.2139 0.078,0.4231 0.1329,0.627 0.4273,1.5816 1.534,2.7787 2.8925,3.3808 1.076,0.477 2.2876,0.5265 3.4668,0.2012 l -1.4218,3.1953 c -1.8865,4.236 -2.1176,7.9103 -0.6563,11.0274 0.138,0.2943 0.2888,0.5832 0.4531,0.8652 -2.8774,2.2255 -7.2323,3.4908 -9.8066,3.8828 l -0.8496,-2.4004 a 1.05,1.05 0 0 0 -1.3438,-0.6347 1.05,1.05 0 0 0 -0.6347,1.3437 l 1.1679,3.2852 a 1.050105,1.050105 0 0 0 1.0996,0.6933 c 2.8357,-0.2922 7.9451,-1.6087 11.5879,-4.4492 1.6281,1.9345 3.9404,3.5972 6.793,5.1875 l 1.2695,-2.2734 c -3.8237,-2.1318 -6.2856,-4.267 -7.3828,-6.6074 -1.0972,-2.3404 -1.0217,-5.0447 0.6797,-8.8653 l 3.168,-7.1152 2.3105,1.1465 -2.6953,5.8359 c -1.0834,2.3435 -1.5543,4.6591 -0.7383,6.8438 0.8161,2.1846 2.7737,3.9788 5.9063,5.6699 l 1.2324,-2.2813 c -2.8479,-1.5374 -4.206,-2.9739 -4.7031,-4.3047 -0.4971,-1.3307 -0.2785,-2.8157 0.6582,-4.8418 l 2.6679,-5.7675 2.1778,1.08 -1.7539,3.9571 c -0.8223,1.8554 -0.955,3.462 -0.4121,4.7539 0.5429,1.2918 1.6219,2.0432 2.6347,2.5762 l 1.211,-2.2969 c -0.7816,-0.4113 -1.2505,-0.8228 -1.4473,-1.291 -0.1969,-0.4683 -0.261,-1.2169 0.3906,-2.6875 l 2.584,-5.8321 -1.1855,-0.5254 v 0 l -18.2071,-9.0293 -0.5586,1.2148 c -1.2174,2.3258 -3.7127,2.9705 -4.6816,2.541 -0.708,-0.3137 -1.2102,-0.843 -1.4395,-1.6914 -0.2294,-0.8483 -0.1665,-2.0917 0.6114,-3.75 z m 9.9472,5.8926 5.3125,2.6348 c -1.3056,1.5068 -3.1898,1.901 -4.0019,1.541 -0.708,-0.3137 -1.2103,-0.8333 -1.4395,-1.6816 -0.1673,-0.6186 -0.1789,-1.4478 0.1289,-2.4942 z m -6.6074,4.082 a 1.7850207,1.7850207 0 0 0 -1.7852,1.7852 1.7850207,1.7850207 0 0 0 1.7852,1.7852 1.7850207,1.7850207 0 0 0 1.7852,-1.7852 1.7850207,1.7850207 0 0 0 -1.7852,-1.7852 z m -4.4687,11.6895 v 0 c -0.2921,0.4834 -0.5242,1.1144 -0.6465,1.75 -0.4171,-0.2696 -0.8282,-0.5547 -1.2325,-0.8535 -0.4384,0.7272 -0.6952,1.9006 -0.4726,2.6543 1.1568,0 3.9957,0.012 5.3027,0.012 -0.01,0 -0.014,-0.01 -0.022,-0.01 0.6626,0 1.3392,0 1.9454,0 0.6083,0 0.9996,-0.013 1.0468,-0.2578 0.062,-0.3245 -0.4447,-0.566 -1.0215,-0.834 -1.6183,-0.7522 -3.3879,-1.3509 -4.9003,-2.4687 z m -1.6329,4.0371 a 3.256551,3.0109425 0 0 0 3.0313,1.9121 3.256551,3.0109425 0 0 0 3.0332,-1.9121 z"
           transform="scale(0.26458333)" />
        <path
           id="path331309"
           style="color:#000000;fill:#e11d48;fill-opacity:1;stroke-width:3.77953;-inkscape-stroke:none"
           d="m 3307.084,2929.293 c -0.4904,0 -0.9846,0.085 -1.4668,0.2539 -1.2618,0.4417 -2.415,1.396 -3.0488,2.7988 -0.1344,0.2974 -0.2442,0.6117 -0.3301,0.9434 -0.059,-0.031 -0.1196,-0.061 -0.1797,-0.09 v 0 c -0.039,-0.019 -0.076,-0.034 -0.1133,-0.055 -1.2142,-0.5397 -2.6327,-0.6037 -3.8945,-0.1621 -1.2619,0.4417 -2.4071,1.4039 -3.041,2.8067 -0.3625,0.8 -0.5541,1.7266 -0.5469,2.7597 l 22.7344,11.3145 0.789,-1.7188 c 0.1831,-0.2535 0.3432,-0.5138 0.4785,-0.7812 0.6961,-1.373 0.7277,-2.8687 0.2813,-4.1289 -0.4464,-1.2601 -1.385,-2.3255 -2.5664,-2.9336 -0.038,-0.017 -0.075,-0.036 -0.1133,-0.055 v 0 c -0.015,-0.01 -0.03,-0.014 -0.045,-0.021 1.3273,-1.6425 1.6345,-3.5932 1.0723,-5.2168 -0.7676,-2.2168 -3.1309,-3.4794 -5.6016,-3.0489 -0.9532,-1.6818 -2.6587,-2.6796 -4.4101,-2.6679 z m 0.3789,2.4511 c 1.0155,0.01 1.9622,0.5518 2.2969,1.6856 l 0.3984,1.3515 1.291,-0.5468 c 1.5192,-0.6419 2.8132,0.2552 3.2774,1.5957 0.4641,1.3404 0.1913,3.106 -2.9375,4.4648 -2.0781,0.9025 -4.0881,1.7297 -4.9317,2.0742 l -0.5742,-0.2851 c -0.2643,-0.8868 -0.877,-2.9658 -1.4707,-5.1328 -0.451,-1.6461 -0.3051,-2.7979 0.045,-3.5723 0.35,-0.7745 0.9179,-1.229 1.586,-1.4629 v 0 c 0.334,-0.1169 0.6791,-0.1737 1.0176,-0.1719 z m -7.5606,3.4414 c 1.015,0.01 1.9582,0.552 2.293,1.6856 l 0.018,-0.01 c 0.05,0.2458 0.11,0.4958 0.1797,0.75 0.2842,1.0374 0.5717,2.0572 0.8281,2.9453 l -6.1523,-3.0625 c 0.055,-0.251 0.1324,-0.4761 0.2226,-0.6757 0.35,-0.7744 0.924,-1.231 1.5918,-1.4649 0.334,-0.1169 0.6812,-0.1738 1.0195,-0.1719 z m 8.9454,0.4629 a 1.6936491,1.6936491 0 0 0 -1.1348,0.4942 1.6936491,1.6936491 0 0 0 0,2.3945 1.6936491,1.6936491 0 0 0 2.3965,0 1.6936491,1.6936491 0 0 0 0,-2.3945 1.6936491,1.6936491 0 0 0 -1.2617,-0.4942 z m 5.2031,6.6036 c 1.0665,0 1.9569,0.7797 2.3262,1.8222 0.2359,0.667 0.2396,1.4022 -0.1446,2.1602 -0.1007,0.1986 -0.2298,0.4016 -0.3945,0.6054 l -6.0039,-2.9882 c 0.8847,-0.3706 1.9178,-0.8077 2.959,-1.2598 0.1117,-0.049 0.2207,-0.099 0.3281,-0.1504 0.3189,-0.131 0.6311,-0.1906 0.9297,-0.1894 z"
           transform="scale(0.26458333)" />
        <g
           id="g331313"
           style="fill:#e11d48;fill-opacity:1">
          <path
             style="color:#000000;fill:#e11d48;fill-opacity:1;stroke-width:4.49192;stroke-linecap:round;stroke-linejoin:round;-inkscape-stroke:none;paint-order:markers fill stroke"
             d="m 877.39166,780.97064 -0.2328,0.50638 -6.01511,-2.99371 0.2328,-0.50638 z"
             id="path331311" />
        </g>
      </g>
      <g
         id="g331325"
         transform="matrix(-0.66010949,-0.07260239,0.07260239,-0.66010949,1326.3316,1360.2911)"
         style="fill:#e11d48;fill-opacity:1">
        <path
           id="path331317"
           style="fill:#e11d48;fill-opacity:1;stroke:#000000;stroke-width:0.999999;stroke-linecap:butt;stroke-linejoin:miter;stroke-miterlimit:4;stroke-dasharray:none;stroke-opacity:0"
           d="m 3286.3809,2943.1152 c -0.9681,2.0635 -1.195,3.9477 -0.7676,5.5293 0.1589,0.5883 0.4112,1.1234 0.7363,1.5957 -0.9542,3.3536 -3.6603,7.6728 -6,9.8536 a 1.050105,1.050105 0 0 0 0.125,1.6386 l 3.4629,2.3242 a 1.05,1.05 0 0 0 1.4531,-0.2871 1.05,1.05 0 0 0 -0.2871,-1.455 l -2.6582,-1.7852 c 2.2121,-2.3539 4.4681,-5.5613 5.6113,-8.7246 0.1466,0.083 0.2957,0.1604 0.4493,0.2285 1.5686,0.6953 3.426,0.4795 5.0507,-0.4805 0.033,0.2139 0.078,0.4231 0.1329,0.627 0.4273,1.5816 1.534,2.7787 2.8925,3.3808 1.076,0.477 2.2876,0.5265 3.4668,0.2012 l -1.4218,3.1953 c -1.8865,4.236 -2.1176,7.9103 -0.6563,11.0274 0.138,0.2943 0.2888,0.5832 0.4531,0.8652 -2.8774,2.2255 -7.2323,3.4908 -9.8066,3.8828 l -0.8496,-2.4004 a 1.05,1.05 0 0 0 -1.3438,-0.6347 1.05,1.05 0 0 0 -0.6347,1.3437 l 1.1679,3.2852 a 1.050105,1.050105 0 0 0 1.0996,0.6933 c 2.8357,-0.2922 7.9451,-1.6087 11.5879,-4.4492 1.6281,1.9345 3.9404,3.5972 6.793,5.1875 l 1.2695,-2.2734 c -3.8237,-2.1318 -6.2856,-4.267 -7.3828,-6.6074 -1.0972,-2.3404 -1.0217,-5.0447 0.6797,-8.8653 l 3.168,-7.1152 2.3105,1.1465 -2.6953,5.8359 c -1.0834,2.3435 -1.5543,4.6591 -0.7383,6.8438 0.8161,2.1846 2.7737,3.9788 5.9063,5.6699 l 1.2324,-2.2813 c -2.8479,-1.5374 -4.206,-2.9739 -4.7031,-4.3047 -0.4971,-1.3307 -0.2785,-2.8157 0.6582,-4.8418 l 2.6679,-5.7675 2.1778,1.08 -1.7539,3.9571 c -0.8223,1.8554 -0.955,3.462 -0.4121,4.7539 0.5429,1.2918 1.6219,2.0432 2.6347,2.5762 l 1.211,-2.2969 c -0.7816,-0.4113 -1.2505,-0.8228 -1.4473,-1.291 -0.1969,-0.4683 -0.261,-1.2169 0.3906,-2.6875 l 2.584,-5.8321 -1.1855,-0.5254 v 0 l -18.2071,-9.0293 -0.5586,1.2148 c -1.2174,2.3258 -3.7127,2.9705 -4.6816,2.541 -0.708,-0.3137 -1.2102,-0.843 -1.4395,-1.6914 -0.2294,-0.8483 -0.1665,-2.0917 0.6114,-3.75 z m 9.9472,5.8926 5.3125,2.6348 c -1.3056,1.5068 -3.1898,1.901 -4.0019,1.541 -0.708,-0.3137 -1.2103,-0.8333 -1.4395,-1.6816 -0.1673,-0.6186 -0.1789,-1.4478 0.1289,-2.4942 z m -6.6074,4.082 a 1.7850207,1.7850207 0 0 0 -1.7852,1.7852 1.7850207,1.7850207 0 0 0 1.7852,1.7852 1.7850207,1.7850207 0 0 0 1.7852,-1.7852 1.7850207,1.7850207 0 0 0 -1.7852,-1.7852 z m -4.4687,11.6895 v 0 c -0.2921,0.4834 -0.5242,1.1144 -0.6465,1.75 -0.4171,-0.2696 -0.8282,-0.5547 -1.2325,-0.8535 -0.4384,0.7272 -0.6952,1.9006 -0.4726,2.6543 1.1568,0 3.9957,0.012 5.3027,0.012 -0.01,0 -0.014,-0.01 -0.022,-0.01 0.6626,0 1.3392,0 1.9454,0 0.6083,0 0.9996,-0.013 1.0468,-0.2578 0.062,-0.3245 -0.4447,-0.566 -1.0215,-0.834 -1.6183,-0.7522 -3.3879,-1.3509 -4.9003,-2.4687 z m -1.6329,4.0371 a 3.256551,3.0109425 0 0 0 3.0313,1.9121 3.256551,3.0109425 0 0 0 3.0332,-1.9121 z"
           transform="scale(0.26458333)" />
        <path
           id="path331319"
           style="color:#000000;fill:#e11d48;fill-opacity:1;stroke-width:3.77953;-inkscape-stroke:none"
           d="m 3307.084,2929.293 c -0.4904,0 -0.9846,0.085 -1.4668,0.2539 -1.2618,0.4417 -2.415,1.396 -3.0488,2.7988 -0.1344,0.2974 -0.2442,0.6117 -0.3301,0.9434 -0.059,-0.031 -0.1196,-0.061 -0.1797,-0.09 v 0 c -0.039,-0.019 -0.076,-0.034 -0.1133,-0.055 -1.2142,-0.5397 -2.6327,-0.6037 -3.8945,-0.1621 -1.2619,0.4417 -2.4071,1.4039 -3.041,2.8067 -0.3625,0.8 -0.5541,1.7266 -0.5469,2.7597 l 22.7344,11.3145 0.789,-1.7188 c 0.1831,-0.2535 0.3432,-0.5138 0.4785,-0.7812 0.6961,-1.373 0.7277,-2.8687 0.2813,-4.1289 -0.4464,-1.2601 -1.385,-2.3255 -2.5664,-2.9336 -0.038,-0.017 -0.075,-0.036 -0.1133,-0.055 v 0 c -0.015,-0.01 -0.03,-0.014 -0.045,-0.021 1.3273,-1.6425 1.6345,-3.5932 1.0723,-5.2168 -0.7676,-2.2168 -3.1309,-3.4794 -5.6016,-3.0489 -0.9532,-1.6818 -2.6587,-2.6796 -4.4101,-2.6679 z m 0.3789,2.4511 c 1.0155,0.01 1.9622,0.5518 2.2969,1.6856 l 0.3984,1.3515 1.291,-0.5468 c 1.5192,-0.6419 2.8132,0.2552 3.2774,1.5957 0.4641,1.3404 0.1913,3.106 -2.9375,4.4648 -2.0781,0.9025 -4.0881,1.7297 -4.9317,2.0742 l -0.5742,-0.2851 c -0.2643,-0.8868 -0.877,-2.9658 -1.4707,-5.1328 -0.451,-1.6461 -0.3051,-2.7979 0.045,-3.5723 0.35,-0.7745 0.9179,-1.229 1.586,-1.4629 v 0 c 0.334,-0.1169 0.6791,-0.1737 1.0176,-0.1719 z m -7.5606,3.4414 c 1.015,0.01 1.9582,0.552 2.293,1.6856 l 0.018,-0.01 c 0.05,0.2458 0.11,0.4958 0.1797,0.75 0.2842,1.0374 0.5717,2.0572 0.8281,2.9453 l -6.1523,-3.0625 c 0.055,-0.251 0.1324,-0.4761 0.2226,-0.6757 0.35,-0.7744 0.924,-1.231 1.5918,-1.4649 0.334,-0.1169 0.6812,-0.1738 1.0195,-0.1719 z m 8.9454,0.4629 a 1.6936491,1.6936491 0 0 0 -1.1348,0.4942 1.6936491,1.6936491 0 0 0 0,2.3945 1.6936491,1.6936491 0 0 0 2.3965,0 1.6936491,1.6936491 0 0 0 0,-2.3945 1.6936491,1.6936491 0 0 0 -1.2617,-0.4942 z m 5.2031,6.6036 c 1.0665,0 1.9569,0.7797 2.3262,1.8222 0.2359,0.667 0.2396,1.4022 -0.1446,2.1602 -0.1007,0.1986 -0.2298,0.4016 -0.3945,0.6054 l -6.0039,-2.9882 c 0.8847,-0.3706 1.9178,-0.8077 2.959,-1.2598 0.1117,-0.049 0.2207,-0.099 0.3281,-0.1504 0.3189,-0.131 0.6311,-0.1906 0.9297,-0.1894 z"
           transform="scale(0.26458333)" />
        <g
           id="g331323"
           style="fill:#e11d48;fill-opacity:1">
          <path
             style="color:#000000;fill:#e11d48;fill-opacity:1;stroke-width:4.49192;stroke-linecap:round;stroke-linejoin:round;-inkscape-stroke:none;paint-order:markers fill stroke"
             d="m 877.39166,780.97064 -0.2328,0.50638 -6.01511,-2.99371 0.2328,-0.50638 z"
             id="path331321" />
        </g>
      </g>
    </g>
  </g>
</svg>
