<?xml version="1.0" encoding="UTF-8"?>
<svg id="Layer_2" data-name="Layer 2" xmlns="http://www.w3.org/2000/svg" viewBox="0 0 449.74 225.32">
  <defs>
    <style>
      .cls-1 {
        fill: #3a363a;
        stroke-width: 0px;
      }
    </style>
  </defs>
  <g id="Logo_Final" data-name="Logo Final">
    <path class="cls-1" d="m274.08,44c-2.84-6.71-9.3-29.31-12.87-44l-22.3,8.74c3.05,10.55,6.28,21.52,9.83,32.89-11.69-1.24-43.35.14-55.34,2.25l-1.07-17.12-23.23,9.11c-.23,1.69-.9,8.5-1.56,12.23C59.66,69.77-14.52,136.84,2.41,172.61c17.65,37.3,136.35,12.46,169.78-91.89,2.2,32.83,4.99,76.43,6.32,104.87l23.76.29,23.48-81.63,15.69,81.07,30.64-.26c-10.55-39.97-24.66-88.33-28.75-113.1h-23.78s-19.77,73.34-19.77,73.34l-5.71-90.98c15.31-2.53,44.46-3.22,58.29-1.37,16.56,51,40.22,109.37,83.29,172.35l25.62-13.44c-12.41-18.26-24.16-36.09-35.67-56.03,39.91,33.87,83.69,32.52,104.64,19.55,63.85-39.53-39.8-115.83-156.16-131.39ZM25.78,155.77c-10.32-18.35,53.73-74.97,139.43-95.93-23.19,98.37-122.98,125.18-139.43,95.93Zm382.73,3.83c-18.17,11.41-78.75,12.67-122.78-85.68-2.3-5.62-4.62-11.44-6.95-17.48,94.46,16.56,175.3,74.54,129.73,103.16Z"/>
  </g>
</svg>